<?xml version="1.0" standalone="no"?>
<!DOCTYPE svg PUBLIC "-//W3C//DTD SVG 20010904//EN"
 "http://www.w3.org/TR/2001/REC-SVG-20010904/DTD/svg10.dtd">
<svg version="1.0" xmlns="http://www.w3.org/2000/svg"
 width="360.000000pt" height="80.000000pt" viewBox="0 0 360.000000 80.000000"
 preserveAspectRatio="xMidYMid meet">

<g transform="translate(0.000000,80.000000) scale(0.100000,-0.100000)"
fill="#000000" stroke="none">
<path d="M2192 678 c2 -26 8 -34 26 -36 l22 -3 -2 -217 c-3 -216 -3 -217 -25
-220 -18 -3 -23 -10 -23 -33 l0 -29 95 0 95 0 0 29 c0 21 -6 32 -20 36 -19 6
-20 15 -20 256 l0 249 -76 0 -75 0 3 -32z"/>
<path d="M2476 694 c-36 -35 -12 -94 39 -94 39 0 65 22 65 54 0 48 -70 75
-104 40z"/>
<path d="M180 635 c0 -31 3 -35 26 -35 26 0 26 0 20 -62 -3 -35 -9 -121 -12
-191 -7 -123 -8 -129 -30 -138 -18 -6 -24 -16 -24 -39 l0 -30 95 0 95 0 0 35
c0 31 -3 35 -25 35 -25 0 -25 1 -24 83 1 45 4 111 8 147 l6 64 60 -157 60
-158 38 3 39 3 56 147 c32 80 61 150 65 154 4 4 7 -17 7 -48 0 -30 3 -96 6
-146 7 -90 7 -90 -17 -94 -19 -2 -25 -10 -27 -35 l-3 -33 95 0 96 0 0 35 c0
30 -3 35 -24 35 l-24 0 -6 163 c-4 89 -9 174 -12 189 -5 23 -1 30 20 39 19 9
26 20 26 41 l0 28 -78 0 -77 0 -65 -171 c-35 -94 -67 -172 -70 -174 -4 -2 -36
73 -72 168 l-65 172 -82 3 -81 3 0 -36z"/>
<path d="M930 527 c-64 -34 -90 -88 -90 -186 0 -91 22 -147 71 -182 28 -20 46
-24 105 -24 62 0 75 3 108 29 54 41 76 94 76 186 0 136 -54 200 -171 200 -39
0 -69 -7 -99 -23z m148 -72 c42 -53 40 -188 -4 -232 -27 -27 -69 -30 -101 -8
-46 33 -54 186 -12 239 29 36 89 37 117 1z"/>
<path d="M1426 525 c-34 -23 -36 -23 -36 -5 0 18 -7 20 -70 20 l-70 0 0 -30
c0 -23 5 -30 19 -30 36 0 42 -23 39 -146 -3 -112 -4 -120 -25 -129 -16 -7 -23
-18 -23 -37 l0 -28 95 0 95 0 0 30 c0 23 -5 31 -25 36 -25 6 -25 8 -25 106 0
135 18 168 91 168 49 0 60 -30 57 -161 -3 -110 -4 -114 -25 -117 -18 -3 -23
-10 -23 -33 l0 -29 95 0 95 0 0 29 c0 20 -6 32 -19 36 -17 5 -19 19 -23 133
-5 139 -16 175 -59 198 -45 23 -120 18 -163 -11z"/>
<path d="M1855 534 c-76 -39 -107 -101 -107 -211 1 -129 49 -188 152 -188 47
0 63 4 82 23 30 27 38 28 38 2 0 -18 7 -20 60 -20 60 0 60 0 60 29 0 21 -6 32
-20 36 -19 6 -20 15 -20 164 l0 159 -44 11 c-65 16 -166 14 -201 -5z m150
-177 c0 -114 -1 -120 -24 -138 -35 -29 -88 -22 -115 14 -16 22 -21 43 -21 90
0 76 8 106 35 135 18 19 30 22 73 20 l52 -3 0 -118z"/>
<path d="M2743 530 c-36 -22 -63 -66 -63 -105 0 -59 44 -102 125 -120 47 -11
75 -33 75 -58 0 -34 -19 -47 -65 -47 -46 0 -65 13 -65 47 0 20 -5 23 -35 23
l-35 0 0 -59 c0 -69 1 -70 102 -78 147 -13 236 74 183 177 -17 33 -43 49 -123
75 -68 22 -89 57 -53 86 43 35 111 18 111 -26 0 -18 5 -25 19 -25 41 0 51 11
51 57 0 41 -2 45 -35 59 -51 21 -153 18 -192 -6z"/>
<path d="M3145 534 c-76 -39 -106 -99 -106 -210 0 -130 47 -189 151 -189 47 0
63 4 82 23 30 27 38 28 38 2 0 -18 7 -20 60 -20 60 0 60 0 60 29 0 21 -6 32
-20 36 -19 6 -20 15 -20 164 l0 159 -44 11 c-65 16 -166 14 -201 -5z m150
-177 c0 -114 -1 -120 -24 -138 -35 -29 -88 -22 -115 14 -16 22 -21 43 -21 90
0 76 8 106 35 135 18 19 30 22 73 20 l52 -3 0 -118z"/>
<path d="M2430 510 c0 -23 5 -31 25 -36 l26 -6 -3 -132 c-3 -127 -4 -131 -25
-134 -18 -3 -23 -10 -23 -33 l0 -29 95 0 95 0 0 29 c0 21 -6 32 -20 36 -19 6
-20 15 -20 171 l0 164 -75 0 -75 0 0 -30z"/>
</g>
</svg>
